<svg width="182" height="145" viewBox="0 0 182 145" fill="none" xmlns="http://www.w3.org/2000/svg">
<path d="M38.06 1.21001L47.87 17.97L46.73 59.19L42.51 61.31L35.53 54.99V1.21001H38.06Z" fill="#E6E6E6" stroke="black" stroke-width="0.25" stroke-miterlimit="10"/>
<path d="M6.59 11.16L2.39999 4.78L2.64 98.99L7.18 99.72L6.59 11.16Z" fill="#E6E6E6"/>
<path d="M166.98 10.79L167.57 61.53L43.61 61.31L43.28 10.96L167.23 11.62" fill="#E6E6E6"/>
<path d="M166.98 10.79L167.57 61.53L43.61 61.31L43.28 10.96L167.23 11.62" stroke="black" stroke-width="0.25" stroke-miterlimit="10"/>
<path d="M43.5 10.96L39.09 1.24001L39.07 1.22L1 1L1.22 144.65H39.94L39.07 1.22" fill="#E6E6E6"/>
<path d="M43.5 10.96L39.09 1.24001L39.07 1.22L1 1L1.22 144.65H39.94L39.07 1.22" stroke="black" stroke-width="0.25" stroke-miterlimit="10"/>
<path d="M1 59.34H39.22H39.42L39.86 59.19" fill="#E6E6E6"/>
<path d="M1 59.34H39.22H39.42L39.86 59.19" stroke="black" stroke-width="0.25" stroke-miterlimit="10"/>
<path d="M180.96 99.72H39.67L39.8 122.18L39.94 144.65L180.52 143.54L180.96 99.72Z" fill="#E6E6E6" stroke="black" stroke-width="0.25" stroke-miterlimit="10"/>
<path d="M39.48 99.72H1" stroke="black" stroke-width="0.25" stroke-miterlimit="10"/>
<path d="M142.85 122.18H39.8H1.19" fill="#E6E6E6"/>
<path d="M142.85 122.18H39.8H1.19" stroke="black" stroke-width="0.25" stroke-miterlimit="10"/>
<path d="M92.91 99.72L93.29 144.23" stroke="black" stroke-width="0.25" stroke-miterlimit="10"/>
<path d="M143.4 99.72V143.84" stroke="black" stroke-width="0.25" stroke-miterlimit="10"/>
<path d="M43.61 36.25L167.57 36.88" stroke="black" stroke-width="0.25" stroke-miterlimit="10"/>
<path d="M90.29 10.96V61.31" stroke="black" stroke-width="0.25" stroke-miterlimit="10"/>
<path d="M134.88 11.45V61.31" stroke="black" stroke-width="0.25" stroke-miterlimit="10"/>
<path d="M43.27 61.92L39.86 59.19" stroke="black" stroke-width="0.25" stroke-miterlimit="10"/>
<path d="M43.61 61.31L43.95 99.41" stroke="black" stroke-width="0.25" stroke-miterlimit="10"/>
</svg>
